<?xml version="1.0" encoding="UTF-8" standalone="no"?>
<svg width="52px" height="14px" viewBox="0 0 52 14" version="1.1" xmlns="http://www.w3.org/2000/svg" xmlns:xlink="http://www.w3.org/1999/xlink">
    <g id="Landing" stroke="none" stroke-width="1" fill="none" fill-rule="evenodd">
        <g id="Desktop-HD-Copy-9" transform="translate(-794.000000, -949.000000)" fill="#3D3D3D">
            <g id="Connect" transform="translate(595.000000, 938.000000)">
                <path d="M209.060189,16.9921263 L204.670621,16.9921263 C204.557684,16.9921263 204.465861,17.0831443 204.465861,17.1959381 L204.465861,19.3227655 C204.465861,19.4355593 204.557684,19.5261263 204.670621,19.5261263 L206.38349,19.5261263 L206.38349,22.1699253 C206.38349,22.1699253 205.998632,22.2972423 204.936591,22.2972423 C203.682293,22.2972423 201.930601,21.8418093 201.930601,18.0251675 C201.930601,14.206884 203.754278,13.7044536 205.467166,13.7044536 C206.949903,13.7044536 207.587826,13.9625155 207.994708,14.0876675 C208.122296,14.1274124 208.238673,14.0005103 208.238673,13.8873196 L208.729169,11.8322423 C208.729169,11.7797062 208.710222,11.7164716 208.651597,11.67375 C208.48606,11.5584124 207.479167,11 204.936554,11 C202.005571,11 199,12.2355902 199,18.1760284 C199,24.1156005 202.4409,25 205.340851,25 C207.741242,25 209.199826,23.9840258 209.199826,23.9840258 C209.259307,23.9515335 209.26535,23.8686521 209.26535,23.8310541 L209.26535,17.1959381 C209.264494,17.0839923 209.172252,16.9921263 209.060189,16.9921263 L209.060189,16.9921263 Z M231.258947,11.5075722 L228.789175,11.5075722 C228.675383,11.5075722 228.584032,11.5985722 228.584032,11.711366 L228.584032,16.4452603 L224.732374,16.4452603 L224.732374,11.711366 C224.732374,11.5985722 224.640132,11.5075722 224.528924,11.5075722 L222.056549,11.5075722 C221.945323,11.5075722 221.85481,11.5985722 221.85481,11.711366 L221.85481,24.5291778 C221.85481,24.6428196 221.946197,24.7334046 222.056549,24.7334046 L224.528924,24.7334046 C224.641824,24.7334046 224.732374,24.6419716 224.732374,24.5291778 L224.732374,19.0476005 L228.584032,19.0476005 L228.575387,24.5300258 C228.575387,24.6436856 228.666774,24.7333866 228.777126,24.7333866 L231.250356,24.7333866 C231.364148,24.7333866 231.452951,24.6419536 231.452951,24.5300258 L231.46156,11.7113479 C231.463271,11.5985722 231.371028,11.5075722 231.258947,11.5075722 L231.258947,11.5075722 Z M212.012722,11.7980902 C211.132581,11.7980902 210.418796,12.512018 210.418796,13.3929897 C210.418796,14.2743943 211.132581,14.9883402 212.012722,14.9883402 C212.892864,14.9883402 213.605793,14.2744124 213.605793,13.3929897 C213.605812,12.5120361 212.892882,11.7980902 212.012722,11.7980902 L212.012722,11.7980902 Z M213.430792,15.9094897 C213.430792,15.7975438 213.339423,15.7048299 213.228197,15.7048299 L210.763612,15.7048299 C210.648073,15.7048299 210.549824,15.8201856 210.549824,15.9334124 L210.549824,24.4103943 C210.549824,24.6581907 210.705842,24.7333866 210.908437,24.7333866 L213.128202,24.7333866 C213.370474,24.7333866 213.434232,24.6154691 213.434232,24.4052526 C213.432521,23.9506675 213.432521,22.1716031 213.432521,21.8264021 C213.430792,21.4982861 213.430792,15.9094897 213.430792,15.9094897 L213.430792,15.9094897 Z M240.8252,15.7240619 L238.373519,15.7240619 C238.261438,15.7240619 238.17178,15.8159278 238.17178,15.9287216 L238.17178,22.2126649 C238.17178,22.2126649 237.548508,22.66725 236.662306,22.66725 C235.778706,22.66725 235.542495,22.2699098 235.542495,21.409433 L235.542495,15.9278737 C235.542495,15.8150799 235.450253,15.7231959 235.339901,15.7231959 L232.852874,15.7231959 C232.739082,15.7231959 232.649424,15.8150799 232.649424,15.9278737 L232.649424,21.8238763 C232.649424,24.3728144 234.083037,24.9974381 236.052812,24.9974381 C237.670036,24.9974381 238.976042,24.1113428 238.976042,24.1113428 C238.976042,24.1113428 239.037252,24.5761933 239.068284,24.6317242 C239.094166,24.6872552 239.167425,24.7428222 239.2476,24.7428222 L240.823434,24.7428222 C240.935516,24.7428222 241.026884,24.6513711 241.026884,24.5385773 L241.033782,15.9278918 C241.028631,15.8159098 240.937245,15.7240619 240.8252,15.7240619 L240.8252,15.7240619 Z M247.540589,15.4352397 C246.14751,15.4352397 245.200098,16.0513119 245.200098,16.0513119 L245.200098,11.711366 C245.200098,11.5985722 245.107856,11.5075722 244.997504,11.5075722 L242.517375,11.5075722 C242.406186,11.5075722 242.314781,11.5985722 242.314781,11.711366 L242.307882,24.5300438 C242.307882,24.6437036 242.400125,24.7334046 242.512188,24.7334046 L244.23889,24.7334046 C244.315607,24.7334046 244.373376,24.6940928 244.41735,24.6257345 C244.460468,24.5565103 244.521641,24.034433 244.521641,24.034433 C244.521641,24.034433 245.532829,24.9863428 247.452624,24.9863428 C249.706025,24.9863428 250.997397,23.8532809 250.997397,19.9004098 C250.997434,15.9526443 248.933669,15.4352397 247.540589,15.4352397 L247.540589,15.4352397 Z M246.573375,22.6586985 C245.723374,22.6330619 245.147516,22.2502448 245.147516,22.2502448 L245.147516,18.1897036 C245.147516,18.1897036 245.717331,17.8432036 246.415609,17.7820979 C247.299209,17.7043402 248.152668,17.9683918 248.152668,20.0576392 C248.148318,22.2587964 247.76386,22.6937165 246.573375,22.6586985 L246.573375,22.6586985 Z M220.570354,22.612549 C220.461712,22.612549 220.184148,22.6552706 219.89965,22.6552706 C218.991061,22.6552706 218.680717,22.2357036 218.680717,21.6931134 L218.680717,18.0875722 L220.535863,18.0875722 C220.649655,18.0875722 220.739313,17.9965722 220.739313,17.8829304 L220.739313,15.9077758 C220.741023,15.794134 220.649655,15.703116 220.535863,15.703116 L218.680717,15.703116 L218.678114,13.2759381 C218.678114,13.1840722 218.62899,13.1383737 218.522096,13.1383737 L215.99712,13.1383737 C215.899709,13.1383737 215.845397,13.1815103 215.845397,13.2750902 L215.845397,15.7834536 C215.845397,15.7834536 214.579051,16.086366 214.493688,16.1115876 C214.409218,16.1355103 214.347153,16.214134 214.347153,16.3068299 L214.347153,17.8837784 C214.347153,17.9965722 214.439395,18.0884381 214.550603,18.0884381 L215.845397,18.0884381 L215.845397,21.8811031 C215.845397,24.6975026 217.839362,24.9743634 219.184154,24.9743634 C219.797943,24.9743634 220.532405,24.7761263 220.655661,24.7334046 C220.729812,24.707768 220.772056,24.6317062 220.772056,24.5505387 L220.772911,22.8167577 C220.772911,22.703134 220.677247,22.6108351 220.570354,22.612549 L220.570354,22.612549 Z" id="github"></path>
            </g>
        </g>
    </g>
</svg>
