<?xml version="1.0" encoding="UTF-8" standalone="no"?>
<svg width="24px" height="20px" viewBox="0 0 24 20" version="1.1" xmlns="http://www.w3.org/2000/svg" xmlns:xlink="http://www.w3.org/1999/xlink">
    <g id="Landing" stroke="none" stroke-width="1" fill="none" fill-rule="evenodd">
        <g id="Desktop-HD-Copy-9" transform="translate(-705.000000, -945.000000)" fill="#3D3D3D">
            <g id="Connect" transform="translate(637.000000, 938.000000)">
                <g id="Twitter" transform="translate(68.000000, 7.000000)">
                    <path d="M23.3168,0.4328 C22.6194667,0.879466667 21.0184,1.52853333 20.2288,1.52853333 L20.2288,1.52986667 C19.3272,0.588 18.0578667,0 16.6501333,0 C13.916,0 11.6989333,2.21706667 11.6989333,4.95013333 C11.6989333,5.32986667 11.7429333,5.70026667 11.8242667,6.05546667 L11.8234667,6.05546667 C8.11466667,5.95813333 4.0584,4.0992 1.61653333,0.9176 C0.1152,3.51626667 1.4144,6.4064 3.11813333,7.45946667 C2.53493333,7.50346667 1.46133333,7.39226667 0.956,6.8992 C0.922133333,8.624 1.75146667,10.9093333 4.77546667,11.7384 C4.19306667,12.0517333 3.16213333,11.9618667 2.71386667,11.8952 C2.8712,13.3512 4.91013333,15.2546667 7.13973333,15.2546667 C6.34506667,16.1738667 3.3552,17.8410667 0,17.3106667 C2.27866667,18.6970667 4.9344,19.5 7.74533333,19.5 C15.7333333,19.5 21.9368,13.0261333 21.6029333,5.03973333 C21.6016,5.03093333 21.6016,5.02213333 21.6008,5.01253333 C21.6016,4.992 21.6029333,4.97146667 21.6029333,4.95013333 C21.6029333,4.92533333 21.6008,4.90186667 21.6,4.87786667 C22.3272,4.38053333 23.3029333,3.5008 24,2.34293333 C23.5957333,2.5656 22.3829333,3.01146667 21.2544,3.12213333 C21.9786667,2.7312 23.0517333,1.45093333 23.3168,0.4328" id="Fill-1"></path>
                </g>
            </g>
        </g>
    </g>
</svg>
