<svg width="257" height="87" viewBox="0 0 257 87" xmlns="http://www.w3.org/2000/svg">
  <g fill="none" fill-rule="evenodd">
    <rect fill="#333333" width="257" height="87" rx="12"/>
    <g fill="#FFF">
      <path d="M56.262 41.508c-.056-6.223 5.095-9.25 5.33-9.39-2.917-4.255-7.44-4.836-9.028-4.883-3.798-.4-7.482 2.273-9.417 2.273-1.973 0-4.953-2.234-8.164-2.168-4.132.063-7.997 2.456-10.117 6.17-4.376 7.576-1.113 18.707 3.08 24.83 2.096 3 4.547 6.347 7.754 6.23 3.137-.13 4.31-2.002 8.096-2.002 3.752 0 4.852 2 8.123 1.924 3.367-.05 5.487-3.01 7.51-6.038 2.424-3.433 3.397-6.822 3.435-6.996-.077-.025-6.538-2.49-6.603-9.95M50.083 23.208c1.688-2.11 2.842-4.982 2.522-7.896-2.443.11-5.498 1.69-7.257 3.754-1.556 1.82-2.946 4.8-2.587 7.604 2.745.204 5.562-1.385 7.323-3.462"/>
    </g>
    <g fill="#FFF">
      <path d="M101.71 64.138h-4.386l-2.402-7.548h-8.35l-2.287 7.548h-4.27l8.274-25.696h5.108l8.31 25.696zm-7.512-10.714l-2.173-6.708c-.23-.687-.662-2.302-1.295-4.843h-.077c-.255 1.093-.663 2.707-1.22 4.843l-2.136 6.708h6.9zM122.945 54.646c0 3.15-.856 5.642-2.568 7.47-1.534 1.628-3.44 2.44-5.712 2.44-2.454 0-4.22-.874-5.29-2.63v9.723h-4.117V51.7c0-1.98-.052-4.01-.153-6.09h3.62l.23 2.938h.078c1.373-2.214 3.456-3.32 6.252-3.32 2.186 0 4.01.862 5.47 2.59 1.458 1.732 2.19 4.007 2.19 6.828zm-4.194.15c0-1.803-.405-3.29-1.22-4.46-.89-1.218-2.085-1.83-3.583-1.83-1.016 0-1.94.34-2.763 1.012-.827.674-1.367 1.556-1.62 2.65-.128.51-.192.924-.192 1.252v3.093c0 1.344.414 2.48 1.24 3.412.827.927 1.9 1.392 3.22 1.392 1.55 0 2.758-.6 3.62-1.792.866-1.195 1.3-2.77 1.3-4.728zM144.256 54.646c0 3.15-.856 5.642-2.568 7.47-1.535 1.628-3.44 2.44-5.714 2.44-2.452 0-4.217-.874-5.29-2.63v9.723h-4.117V51.7c0-1.98-.052-4.01-.153-6.09h3.62l.23 2.938h.078c1.37-2.214 3.454-3.32 6.252-3.32 2.184 0 4.01.862 5.472 2.59 1.456 1.732 2.19 4.007 2.19 6.828zm-4.196.15c0-1.803-.407-3.29-1.222-4.46-.89-1.218-2.082-1.83-3.58-1.83-1.016 0-1.94.34-2.767 1.012-.824.674-1.364 1.556-1.617 2.65-.126.51-.193.924-.193 1.252v3.093c0 1.344.415 2.48 1.237 3.412.827.925 1.9 1.392 3.225 1.392 1.552 0 2.76-.6 3.62-1.792.865-1.195 1.298-2.77 1.298-4.728zM168.083 56.932c0 2.186-.763 3.964-2.284 5.337-1.674 1.497-4.008 2.25-7 2.25-2.766 0-4.983-.534-6.655-1.602l.952-3.43c1.806 1.066 3.79 1.6 5.947 1.6 1.553 0 2.76-.35 3.62-1.047.866-.7 1.3-1.633 1.3-2.8 0-1.043-.36-1.92-1.07-2.633-.712-.708-1.89-1.372-3.543-1.98-4.498-1.677-6.75-4.133-6.75-7.36 0-2.108.797-3.834 2.382-5.184 1.587-1.347 3.692-2.02 6.31-2.02 2.338 0 4.286.406 5.833 1.22l-1.033 3.355c-1.456-.788-3.1-1.182-4.937-1.182-1.452 0-2.593.358-3.406 1.068-.687.635-1.036 1.41-1.036 2.33 0 1.012.396 1.854 1.185 2.513.683.61 1.93 1.272 3.734 1.983 2.212.892 3.836 1.93 4.88 3.124 1.047 1.193 1.57 2.682 1.57 4.458M181.728 48.7h-4.537v8.995c0 2.288.8 3.43 2.403 3.43.735 0 1.346-.063 1.828-.192l.115 3.126c-.81.302-1.88.455-3.2.455-1.627 0-2.896-.498-3.815-1.49-.915-.99-1.373-2.654-1.373-4.994v-9.34h-2.7v-3.088h2.7V42.21l4.044-1.22V45.6h4.538V48.7M202.16 54.72c0 2.85-.812 5.188-2.44 7.016-1.7 1.88-3.964 2.82-6.785 2.82-2.722 0-4.887-.9-6.5-2.704-1.615-1.803-2.422-4.078-2.422-6.822 0-2.87.836-5.223 2.496-7.05 1.664-1.83 3.907-2.747 6.728-2.747 2.72 0 4.903.906 6.558 2.707 1.58 1.75 2.365 4.01 2.365 6.78zm-4.266.096c0-1.697-.367-3.153-1.103-4.372-.862-1.47-2.1-2.205-3.698-2.205-1.647 0-2.916.733-3.775 2.204-.74 1.22-1.105 2.7-1.105 4.45 0 1.698.365 3.158 1.105 4.37.89 1.474 2.13 2.21 3.742 2.21 1.57 0 2.804-.753 3.698-2.244.755-1.247 1.136-2.713 1.136-4.414zM215.548 49.23c-.408-.075-.844-.112-1.298-.112-1.448 0-2.568.543-3.356 1.64-.685.965-1.027 2.185-1.027 3.658v9.722h-4.117V51.445c0-2.134-.04-4.082-.12-5.833h3.586l.15 3.545h.115c.437-1.22 1.12-2.202 2.06-2.935.918-.665 1.907-.995 2.975-.995.38 0 .724.03 1.03.076l.003 3.927M233.96 53.997c0 .738-.05 1.36-.152 1.867H221.46c.044 1.83.645 3.233 1.79 4.198 1.04.86 2.388 1.294 4.04 1.294 1.828 0 3.496-.29 4.996-.877l.645 2.857c-1.752.763-3.824 1.145-6.21 1.145-2.873 0-5.13-.846-6.77-2.533-1.635-1.69-2.458-3.964-2.458-6.806 0-2.792.76-5.12 2.29-6.974 1.6-1.98 3.76-2.972 6.478-2.972 2.67 0 4.692.99 6.063 2.972 1.09 1.57 1.636 3.516 1.636 5.827zm-3.927-1.068c.03-1.223-.24-2.273-.8-3.165-.712-1.147-1.808-1.72-3.278-1.72-1.348 0-2.442.56-3.277 1.68-.685.89-1.092 1.96-1.218 3.2l8.573.004z"/>
    </g>
    <g fill="#FFF">
      <path d="M92.213 29.246h-2.157l-1.18-3.71h-4.103l-1.126 3.71H81.55l4.065-12.63h2.51l4.088 12.63zM88.52 23.98l-1.067-3.298c-.112-.338-.318-1.124-.637-2.38h-.04c-.13.544-.317 1.332-.6 2.38L85.13 23.98h3.393zM102.38 20.14l-3.448 9.106h-1.967l-3.337-9.106h2.174l1.557 4.815c.26.805.485 1.574.653 2.304h.056c.15-.656.374-1.424.654-2.305l1.537-4.815h2.12M109.722 29.246l-.15-1.05h-.057c-.618.845-1.517 1.256-2.66 1.256-1.63 0-2.792-1.143-2.792-2.68 0-2.247 1.948-3.41 5.32-3.41v-.168c0-1.2-.636-1.8-1.89-1.8-.9 0-1.69.227-2.38.676l-.41-1.33c.842-.525 1.89-.788 3.13-.788 2.377 0 3.578 1.255 3.578 3.767v3.353c0 .92.04 1.632.133 2.174h-1.82zm-.282-4.536c-2.25 0-3.373.544-3.373 1.836 0 .956.58 1.423 1.386 1.423 1.03 0 1.987-.787 1.987-1.854V24.71zM115.918 18.64c-.674 0-1.2-.526-1.2-1.22 0-.692.544-1.198 1.24-1.198.692 0 1.254.506 1.235 1.2 0 .73-.524 1.217-1.275 1.217zm-.973 1.5h2.024v9.106h-2.025V20.14zM120.564 15.96h2.023v13.286h-2.023M131.188 29.246l-.153-1.05h-.054c-.617.845-1.517 1.256-2.66 1.256-1.63 0-2.792-1.143-2.792-2.68 0-2.247 1.948-3.41 5.322-3.41v-.168c0-1.2-.638-1.8-1.893-1.8-.9 0-1.687.227-2.378.676l-.415-1.332c.844-.525 1.893-.788 3.13-.788 2.38 0 3.582 1.255 3.582 3.767v3.354c0 .92.04 1.633.128 2.176h-1.817zm-.282-4.536c-2.25 0-3.374.544-3.374 1.836 0 .956.582 1.423 1.387 1.423 1.03 0 1.986-.787 1.986-1.854V24.71zM141.074 29.452c-1.292 0-2.246-.544-2.866-1.612h-.038l-.116 1.406h-1.723c.055-.73.075-1.557.075-2.455V15.96h2.027v5.512h.037c.6-1.012 1.573-1.518 2.903-1.518 2.193 0 3.73 1.875 3.73 4.61 0 2.826-1.706 4.888-4.03 4.888zm-.412-7.91c-1.164 0-2.23 1.013-2.23 2.42v1.592c0 1.255.958 2.286 2.194 2.286 1.515 0 2.42-1.236 2.42-3.203-.003-1.837-.94-3.094-2.384-3.094zM148.098 15.96h2.022v13.286h-2.022M161.134 25.18h-6.075c.04 1.723 1.18 2.697 2.864 2.697.902 0 1.727-.15 2.457-.43l.315 1.405c-.86.374-1.873.562-3.052.562-2.85 0-4.536-1.8-4.536-4.59 0-2.792 1.726-4.89 4.31-4.89 2.32 0 3.786 1.723 3.786 4.328.006.355-.012.674-.07.917zm-1.854-1.443c0-1.406-.715-2.398-2.008-2.398-1.163 0-2.078 1.01-2.213 2.397h4.22zM173.4 29.452c-2.662 0-4.387-1.987-4.387-4.684 0-2.81 1.76-4.816 4.538-4.816 2.62 0 4.386 1.893 4.386 4.667 0 2.845-1.82 4.832-4.537 4.832zm.076-8.02c-1.462 0-2.398 1.366-2.398 3.278 0 1.875.955 3.242 2.378 3.242s2.38-1.462 2.38-3.28c0-1.854-.937-3.24-2.36-3.24zM188.815 29.246h-2.02v-5.23c0-1.61-.62-2.417-1.838-2.417-1.2 0-2.026 1.03-2.026 2.23v5.416h-2.018v-6.504c0-.805-.024-1.668-.078-2.604h1.78l.095 1.405h.057c.54-.973 1.647-1.593 2.885-1.593 1.908 0 3.163 1.462 3.163 3.84v5.456M202.055 21.657h-2.227v4.422c0 1.125.392 1.686 1.178 1.686.355 0 .66-.038.9-.094l.056 1.537c-.394.15-.92.225-1.572.225-1.597 0-2.547-.88-2.547-3.186v-4.593h-1.326V20.14h1.326v-1.67l1.985-.6v2.268h2.227v1.52M212.77 29.246h-2.024v-5.19c0-1.63-.62-2.455-1.837-2.455-1.05 0-2.022.714-2.022 2.156v5.49h-2.026V15.96h2.026v5.47h.038c.636-.99 1.557-1.48 2.736-1.48 1.93 0 3.11 1.5 3.11 3.88v5.416M223.11 25.18h-6.072c.04 1.723 1.178 2.697 2.866 2.697.903 0 1.726-.15 2.452-.43l.317 1.405c-.86.374-1.873.562-3.055.562-2.848 0-4.534-1.8-4.534-4.59 0-2.792 1.725-4.89 4.308-4.89 2.323 0 3.787 1.723 3.787 4.328.006.355-.013.674-.07.917zm-1.855-1.443c0-1.406-.71-2.398-2.004-2.398-1.16 0-2.078 1.01-2.212 2.397h4.217z"/>
    </g>
  </g>
</svg>
