<?xml version="1.0" encoding="UTF-8" standalone="no"?>
<svg width="30px" height="14px" viewBox="0 0 30 14" version="1.1" xmlns="http://www.w3.org/2000/svg" xmlns:xlink="http://www.w3.org/1999/xlink">
    <g id="Landing" stroke="none" stroke-width="1" fill="none" fill-rule="evenodd">
        <g id="Desktop-HD-Copy-9" transform="translate(-774.000000, -949.000000)" fill="#3D3D3D">
            <g id="Connect" transform="translate(637.000000, 938.000000)">
                <g id="Soundcloud" transform="translate(137.000000, 11.000000)">
                    <g id="Group-27">
                        <path d="M6.40078947,2.84210526 C6.17678947,2.84210526 5.99515789,2.96270348 5.98778947,3.11723147 L5.68421053,9.68743712 L5.98778947,12.82631 C5.99515789,12.978994 6.17678947,13.0988546 6.40078947,13.0988546 C6.62368421,13.0988546 6.80568421,12.978994 6.81489474,12.824466 L7.15678947,9.68743712 L6.81489474,3.11723147 C6.80568421,2.96454749 6.62368421,2.84210526 6.40078947,2.84210526" id="Fill-129"></path>
                        <path d="M10.1954211,2.84210526 C9.93642105,2.84210526 9.73084211,2.98704441 9.72310526,3.16960134 L9.47368421,9.78738244 L9.72384211,12.8757295 C9.729,13.0564424 9.93642105,13.2013815 10.1954211,13.2013815 C10.4529474,13.2013815 10.6592632,13.059024 10.6666316,12.8757295 L10.9462632,9.78738244 L10.6666316,3.16960134 C10.6592632,2.98704441 10.4529474,2.84210526 10.1954211,2.84210526" id="Fill-130"></path>
                        <path d="M13.0412105,1.89473684 C12.7549474,1.89473684 12.5195263,2.06475451 12.5143684,2.27349638 L12.3157895,9.85901363 C12.3157895,9.86270165 12.5143684,12.9078988 12.5143684,12.9078988 C12.5195263,13.1147967 12.7549474,13.2840768 13.0412105,13.2840768 C13.3263684,13.2859208 13.5628947,13.1177471 13.5673158,12.9097429 L13.7883684,9.86196405 L13.5673158,2.27349638 C13.5628947,2.06475451 13.3263684,1.89473684 13.0412105,1.89473684" id="Fill-131"></path>
                        <path d="M26.0878421,5.62164719 C25.5665263,5.62164719 25.0717368,5.72343651 24.6196842,5.90783746 C24.3179474,2.5971029 21.4479474,0 17.9497895,0 C17.0939474,0 16.2591053,0.162641633 15.523,0.438874248 C15.2378421,0.547670805 15.1597368,0.655729759 15.1578947,0.870003656 L15.1578947,12.5300442 C15.1612105,12.7557509 15.3398947,12.9438399 15.5672105,12.9644928 C15.5764211,12.9644928 26.0193158,12.9707624 26.0878421,12.9707624 C28.1837895,12.9707624 29.8822105,11.3251684 29.8822105,9.29675802 C29.8822105,7.26613482 28.1837895,5.62164719 26.0878421,5.62164719" id="Fill-132"></path>
                        <path d="M3.555,4.73684211 C3.36784211,4.73684211 3.21494737,4.8342058 3.20536842,4.96070485 L2.84210526,9.89527413 L3.20536842,13.0843041 C3.21494737,13.2104343 3.36784211,13.3074292 3.555,13.3074292 C3.74031579,13.3085356 3.89284211,13.2104343 3.90536842,13.0843041 L4.31468421,9.89527413 L3.90536842,4.96181126 C3.89284211,4.83494341 3.74031579,4.73684211 3.555,4.73684211" id="Fill-133"></path>
                        <path d="M0.706631579,7.57894737 C0.557052632,7.57894737 0.435842105,7.62726042 0.424421053,7.69143194 L0,9.82421327 L0.426263158,11.887291 C0.436947368,11.9518314 0.558894737,11.9997756 0.708105263,11.9997756 C0.855842105,11.9997756 0.976315789,11.9518314 0.989210526,11.887291 L1.47221053,9.82421327 L0.989210526,7.69143194 C0.976315789,7.62726042 0.855842105,7.57894737 0.706631579,7.57894737" id="Fill-134"></path>
                    </g>
                </g>
            </g>
        </g>
    </g>
</svg>
